<?xml version="1.0" encoding="UTF-8" standalone="no"?>
<!DOCTYPE svg PUBLIC "-//W3C//DTD SVG 1.1//EN" "http://www.w3.org/Graphics/SVG/1.1/DTD/svg11.dtd">
<svg xmlns="http://www.w3.org/2000/svg" xmlns:xlink="http://www.w3.org/1999/xlink" version="1.1" width="280.143pt" height="189.82pt" viewBox="0 0 280.143 189.82">
<g enable-background="new">
<path transform="matrix(1,0,0,-1,33.772,13.726013)" d="M 8.46835 -53.25375 C 8.46835 -48.57675 4.67699 -44.7854 0 -44.7854 C -4.67699 -44.7854 -8.46835 -48.57675 -8.46835 -53.25375 C -8.46835 -57.93076 -4.67699 -61.7221 0 -61.7221 C 4.67699 -61.7221 8.46835 -57.93076 8.46835 -53.25375 Z M 0 -53.25375 " fill="#fff799"/>
<text xml:space="preserve" transform="matrix(1 0 -0 1 0 189.82)" font-size="9.9626" font-family="CMMI10" font-style="italic"><tspan y="-121.444" x="28.691">x</tspan></text>
<text xml:space="preserve" transform="matrix(1 0 -0 1 0 189.82)" font-size="6.9738" font-family="CMR7"><tspan y="-119.949" x="34.385">0</tspan></text>
<path transform="matrix(1,0,0,-1,33.772,13.726013)" d="M 8.46835 -81.60057 C 8.46835 -76.92357 4.67699 -73.13222 0 -73.13222 C -4.67699 -73.13222 -8.46835 -76.92357 -8.46835 -81.60057 C -8.46835 -86.27756 -4.67699 -90.06892 0 -90.06892 C 4.67699 -90.06892 8.46835 -86.27756 8.46835 -81.60057 Z M 0 -81.60057 " fill="#ffa64d"/>
<text xml:space="preserve" transform="matrix(1 0 -0 1 0 189.82)" font-size="9.9626" font-family="CMMI10" font-style="italic"><tspan y="-93.097" x="28.691">x</tspan></text>
<text xml:space="preserve" transform="matrix(1 0 -0 1 0 189.82)" font-size="6.9738" font-family="CMR7"><tspan y="-91.603" x="34.385">1</tspan></text>
<path transform="matrix(1,0,0,-1,33.772,13.726013)" d="M 8.46835 -109.94737 C 8.46835 -105.27039 4.67699 -101.47902 0 -101.47902 C -4.67699 -101.47902 -8.46835 -105.27039 -8.46835 -109.94737 C -8.46835 -114.62437 -4.67699 -118.41573 0 -118.41573 C 4.67699 -118.41573 8.46835 -114.62437 8.46835 -109.94737 Z M 0 -109.94737 " fill="#ffa64d"/>
<text xml:space="preserve" transform="matrix(1 0 -0 1 0 189.82)" font-size="9.9626" font-family="CMMI10" font-style="italic"><tspan y="-64.751" x="28.691">x</tspan></text>
<text xml:space="preserve" transform="matrix(1 0 -0 1 0 189.82)" font-size="6.9738" font-family="CMR7"><tspan y="-63.256" x="34.385">2</tspan></text>
<path transform="matrix(1,0,0,-1,33.772,13.726013)" d="M 8.46835 -138.29419 C 8.46835 -133.61719 4.67699 -129.82584 0 -129.82584 C -4.67699 -129.82584 -8.46835 -133.61719 -8.46835 -138.29419 C -8.46835 -142.97118 -4.67699 -146.76255 0 -146.76255 C 4.67699 -146.76255 8.46835 -142.97118 8.46835 -138.29419 Z M 0 -138.29419 " fill="#ffa64d"/>
<text xml:space="preserve" transform="matrix(1 0 -0 1 0 189.82)" font-size="9.9626" font-family="CMMI10" font-style="italic"><tspan y="-36.404" x="28.691">x</tspan></text>
<text xml:space="preserve" transform="matrix(1 0 -0 1 0 189.82)" font-size="6.9738" font-family="CMR7"><tspan y="-34.91" x="34.385">3</tspan></text>
<text xml:space="preserve" transform="matrix(1 0 -0 1 -.0000009536743 189.82)" font-size="9.9626" font-family="CMR10"><tspan y="-179.636" x="21.734 25.330498 30.869704 36.40891 41.948118">Input</tspan><tspan y="-167.681" x="23.380999 26.150603 30.85295 35.834249 40.25764">layer</tspan></text>
<path transform="matrix(1,0,0,-1,33.772,13.726013)" d="M 80.32243 -24.90694 C 80.32243 -19.68481 76.08916 -15.45155 70.86703 -15.45155 C 65.64491 -15.45155 61.41165 -19.68481 61.41165 -24.90694 C 61.41165 -30.12907 65.64491 -34.36234 70.86703 -34.36234 C 76.08916 -34.36234 80.32243 -30.12907 80.32243 -24.90694 Z M 70.86703 -24.90694 " fill="#9999ff"/>
<text xml:space="preserve" transform="matrix(1 0 -0 1 0 189.82003)" font-size="8.9664" font-family="CMMI9" font-style="italic"><tspan y="-147.794" x="97.03">h</tspan></text>
<text xml:space="preserve" transform="matrix(1 0 -0 1 0 189.82003)" font-size="5.9776" font-family="CMR6"><tspan y="-152.376" x="102.34 105.2212 108.87351">(1)</tspan><tspan y="-145.51502" x="102.34">1</tspan></text>
<path transform="matrix(1,0,0,-1,33.772,13.726013)" d="M 80.32243 -53.25375 C 80.32243 -48.03163 76.08916 -43.79837 70.86703 -43.79837 C 65.64491 -43.79837 61.41165 -48.03163 61.41165 -53.25375 C 61.41165 -58.47588 65.64491 -62.70914 70.86703 -62.70914 C 76.08916 -62.70914 80.32243 -58.47588 80.32243 -53.25375 Z M 70.86703 -53.25375 " fill="#9999ff"/>
<text xml:space="preserve" transform="matrix(1 0 -0 1 0 189.82)" font-size="8.9664" font-family="CMMI9" font-style="italic"><tspan y="-119.447" x="97.03">h</tspan></text>
<text xml:space="preserve" transform="matrix(1 0 -0 1 0 189.82)" font-size="5.9776" font-family="CMR6"><tspan y="-124.03" x="102.34 105.2212 108.87351">(1)</tspan><tspan y="-117.169" x="102.34">2</tspan></text>
<path transform="matrix(1,0,0,-1,33.772,13.726013)" d="M 80.32243 -81.60057 C 80.32243 -76.37845 76.08916 -72.14517 70.86703 -72.14517 C 65.64491 -72.14517 61.41165 -76.37845 61.41165 -81.60057 C 61.41165 -86.8227 65.64491 -91.05595 70.86703 -91.05595 C 76.08916 -91.05595 80.32243 -86.8227 80.32243 -81.60057 Z M 70.86703 -81.60057 " fill="#9999ff"/>
<text xml:space="preserve" transform="matrix(1 0 -0 1 0 189.82)" font-size="8.9664" font-family="CMMI9" font-style="italic"><tspan y="-91.101" x="97.03">h</tspan></text>
<text xml:space="preserve" transform="matrix(1 0 -0 1 0 189.82)" font-size="5.9776" font-family="CMR6"><tspan y="-95.683" x="102.34 105.2212 108.87351">(1)</tspan><tspan y="-88.823" x="102.34">3</tspan></text>
<path transform="matrix(1,0,0,-1,33.772,13.726013)" d="M 80.32243 -109.94737 C 80.32243 -104.72525 76.08916 -100.49199 70.86703 -100.49199 C 65.64491 -100.49199 61.41165 -104.72525 61.41165 -109.94737 C 61.41165 -115.1695 65.64491 -119.40276 70.86703 -119.40276 C 76.08916 -119.40276 80.32243 -115.1695 80.32243 -109.94737 Z M 70.86703 -109.94737 " fill="#9999ff"/>
<text xml:space="preserve" transform="matrix(1 0 -0 1 0 189.82)" font-size="8.9664" font-family="CMMI9" font-style="italic"><tspan y="-62.754" x="97.03">h</tspan></text>
<text xml:space="preserve" transform="matrix(1 0 -0 1 0 189.82)" font-size="5.9776" font-family="CMR6"><tspan y="-67.337009" x="102.34 105.2212 108.87351">(1)</tspan><tspan y="-60.476007" x="102.34">4</tspan></text>
<path transform="matrix(1,0,0,-1,33.772,13.726013)" d="M 80.32243 -138.29419 C 80.32243 -133.07207 76.08916 -128.83879 70.86703 -128.83879 C 65.64491 -128.83879 61.41165 -133.07207 61.41165 -138.29419 C 61.41165 -143.51631 65.64491 -147.74958 70.86703 -147.74958 C 76.08916 -147.74958 80.32243 -143.51631 80.32243 -138.29419 Z M 70.86703 -138.29419 " fill="#9999ff"/>
<text xml:space="preserve" transform="matrix(1 0 -0 1 0 189.82003)" font-size="8.9664" font-family="CMMI9" font-style="italic"><tspan y="-34.408" x="97.03">h</tspan></text>
<text xml:space="preserve" transform="matrix(1 0 -0 1 0 189.82003)" font-size="5.9776" font-family="CMR6"><tspan y="-38.991" x="102.34 105.2212 108.87351">(1)</tspan><tspan y="-32.13" x="102.34">5</tspan></text>
<path transform="matrix(1,0,0,-1,33.772,13.726013)" d="M 80.32243 -166.64099 C 80.32243 -161.41887 76.08916 -157.18561 70.86703 -157.18561 C 65.64491 -157.18561 61.41165 -161.41887 61.41165 -166.64099 C 61.41165 -171.86312 65.64491 -176.09638 70.86703 -176.09638 C 76.08916 -176.09638 80.32243 -171.86312 80.32243 -166.64099 Z M 70.86703 -166.64099 " fill="#9999ff"/>
<text xml:space="preserve" transform="matrix(1 0 -0 1 0 189.82003)" font-size="8.9664" font-family="CMMI9" font-style="italic"><tspan y="-6.061" x="97.03">h</tspan></text>
<text xml:space="preserve" transform="matrix(1 0 -0 1 0 189.82003)" font-size="5.9776" font-family="CMR6"><tspan y="-10.644" x="102.34 105.2212 108.87351">(1)</tspan><tspan y="-3.783" x="102.34">6</tspan></text>
<text xml:space="preserve" transform="matrix(1 0 -0 1 0 189.82)" font-size="9.9626" font-family="CMR10"><tspan y="-179.581" x="89.003 96.474948 99.244548 104.78375 110.32296 114.74635">Hidden</tspan><tspan y="-167.62599" x="90.096 92.8656 97.56795 102.54925 106.97264 114.20549">layer1</tspan></text>
<path transform="matrix(1,0,0,-1,33.772,13.726013)" stroke-width=".3985" stroke-linecap="butt" stroke-miterlimit="10" stroke-linejoin="miter" fill="none" stroke="#9e9e9e" d=""/>
<path transform="matrix(1,0,0,-1,33.772,13.726013)" stroke-width=".3985" stroke-linecap="butt" stroke-miterlimit="10" stroke-linejoin="miter" fill="none" stroke="#9e9e9e" d="M 8.04732 -50.03488 L 60.55287 -29.03253 "/>
<path transform="matrix(.92844,-.37137,-.37137,-.92844,94.32486,42.758546)" stroke-width=".31879" stroke-linecap="round" stroke-linejoin="round" fill="none" stroke="#9e9e9e" d="M -1.19551 1.59401 C -1.09587 .99626 0 .09961 .29886 0 C 0 -.09961 -1.09587 -.99626 -1.19551 -1.59401 "/>
<path transform="matrix(1,0,0,-1,33.772,13.726013)" stroke-width=".3985" stroke-linecap="butt" stroke-miterlimit="10" stroke-linejoin="miter" fill="none" stroke="#9e9e9e" d=""/>
<path transform="matrix(1,0,0,-1,33.772,13.726013)" stroke-width=".3985" stroke-linecap="butt" stroke-miterlimit="10" stroke-linejoin="miter" fill="none" stroke="#9e9e9e" d="M 8.6676 -53.25375 L 59.75784 -53.25375 "/>
<path transform="matrix(1,0,0,-1,93.52984,66.97977)" stroke-width=".31879" stroke-linecap="round" stroke-linejoin="round" fill="none" stroke="#9e9e9e" d="M -1.19551 1.59401 C -1.09587 .99626 0 .09961 .29886 0 C 0 -.09961 -1.09587 -.99626 -1.19551 -1.59401 "/>
<path transform="matrix(1,0,0,-1,33.772,13.726013)" stroke-width=".3985" stroke-linecap="butt" stroke-miterlimit="10" stroke-linejoin="miter" fill="none" stroke="#9e9e9e" d=""/>
<path transform="matrix(1,0,0,-1,33.772,13.726013)" stroke-width=".3985" stroke-linecap="butt" stroke-miterlimit="10" stroke-linejoin="miter" fill="none" stroke="#9e9e9e" d="M 8.04732 -56.47263 L 60.55287 -77.47498 "/>
<path transform="matrix(.92844,.37137,.37137,-.92844,94.32486,91.201)" stroke-width=".31879" stroke-linecap="round" stroke-linejoin="round" fill="none" stroke="#9e9e9e" d="M -1.19551 1.59401 C -1.09587 .99626 0 .09961 .29886 0 C 0 -.09961 -1.09587 -.99626 -1.19551 -1.59401 "/>
<path transform="matrix(1,0,0,-1,33.772,13.726013)" stroke-width=".3985" stroke-linecap="butt" stroke-miterlimit="10" stroke-linejoin="miter" fill="none" stroke="#9e9e9e" d=""/>
<path transform="matrix(1,0,0,-1,33.772,13.726013)" stroke-width=".3985" stroke-linecap="butt" stroke-miterlimit="10" stroke-linejoin="miter" fill="none" stroke="#9e9e9e" d="M 6.76785 -58.66809 L 62.19275 -103.00787 "/>
<path transform="matrix(.78082,.62466,.62466,-.78082,95.96475,116.73389)" stroke-width=".31879" stroke-linecap="round" stroke-linejoin="round" fill="none" stroke="#9e9e9e" d="M -1.19551 1.59401 C -1.09587 .99626 0 .09961 .29886 0 C 0 -.09961 -1.09587 -.99626 -1.19551 -1.59401 "/>
<path transform="matrix(1,0,0,-1,33.772,13.726013)" stroke-width=".3985" stroke-linecap="butt" stroke-miterlimit="10" stroke-linejoin="miter" fill="none" stroke="#9e9e9e" d=""/>
<path transform="matrix(1,0,0,-1,33.772,13.726013)" stroke-width=".3985" stroke-linecap="butt" stroke-miterlimit="10" stroke-linejoin="miter" fill="none" stroke="#9e9e9e" d="M 5.54857 -59.9121 L 63.75548 -129.76026 "/>
<path transform="matrix(.64015,.76819,.76819,-.64015,97.52748,143.48627)" stroke-width=".31879" stroke-linecap="round" stroke-linejoin="round" fill="none" stroke="#9e9e9e" d="M -1.19551 1.59401 C -1.09587 .99626 0 .09961 .29886 0 C 0 -.09961 -1.09587 -.99626 -1.19551 -1.59401 "/>
<path transform="matrix(1,0,0,-1,33.772,13.726013)" stroke-width=".3985" stroke-linecap="butt" stroke-miterlimit="10" stroke-linejoin="miter" fill="none" stroke="#9e9e9e" d=""/>
<path transform="matrix(1,0,0,-1,33.772,13.726013)" stroke-width=".3985" stroke-linecap="butt" stroke-miterlimit="10" stroke-linejoin="miter" fill="none" stroke="#9e9e9e" d="M 4.59366 -60.6038 L 64.97937 -157.22049 "/>
<path transform="matrix(.52998,.84799,.84799,-.52998,98.75134,170.94649)" stroke-width=".31879" stroke-linecap="round" stroke-linejoin="round" fill="none" stroke="#9e9e9e" d="M -1.19551 1.59401 C -1.09587 .99626 0 .09961 .29886 0 C 0 -.09961 -1.09587 -.99626 -1.19551 -1.59401 "/>
<path transform="matrix(1,0,0,-1,33.772,13.726013)" stroke-width=".3985" stroke-linecap="butt" stroke-miterlimit="10" stroke-linejoin="miter" fill="none" stroke="#9e9e9e" d=""/>
<path transform="matrix(1,0,0,-1,33.772,13.726013)" stroke-width=".3985" stroke-linecap="butt" stroke-miterlimit="10" stroke-linejoin="miter" fill="none" stroke="#9e9e9e" d="M 6.76785 -76.18623 L 62.19275 -31.84645 "/>
<path transform="matrix(.78082,-.62466,-.62466,-.78082,95.96475,45.572465)" stroke-width=".31879" stroke-linecap="round" stroke-linejoin="round" fill="none" stroke="#9e9e9e" d="M -1.19551 1.59401 C -1.09587 .99626 0 .09961 .29886 0 C 0 -.09961 -1.09587 -.99626 -1.19551 -1.59401 "/>
<path transform="matrix(1,0,0,-1,33.772,13.726013)" stroke-width=".3985" stroke-linecap="butt" stroke-miterlimit="10" stroke-linejoin="miter" fill="none" stroke="#9e9e9e" d=""/>
<path transform="matrix(1,0,0,-1,33.772,13.726013)" stroke-width=".3985" stroke-linecap="butt" stroke-miterlimit="10" stroke-linejoin="miter" fill="none" stroke="#9e9e9e" d="M 8.04732 -78.3817 L 60.55287 -57.37935 "/>
<path transform="matrix(.92844,-.37137,-.37137,-.92844,94.32486,71.10536)" stroke-width=".31879" stroke-linecap="round" stroke-linejoin="round" fill="none" stroke="#9e9e9e" d="M -1.19551 1.59401 C -1.09587 .99626 0 .09961 .29886 0 C 0 -.09961 -1.09587 -.99626 -1.19551 -1.59401 "/>
<path transform="matrix(1,0,0,-1,33.772,13.726013)" stroke-width=".3985" stroke-linecap="butt" stroke-miterlimit="10" stroke-linejoin="miter" fill="none" stroke="#9e9e9e" d=""/>
<path transform="matrix(1,0,0,-1,33.772,13.726013)" stroke-width=".3985" stroke-linecap="butt" stroke-miterlimit="10" stroke-linejoin="miter" fill="none" stroke="#9e9e9e" d="M 8.6676 -81.60057 L 59.75784 -81.60057 "/>
<path transform="matrix(1,0,0,-1,93.52984,95.326587)" stroke-width=".31879" stroke-linecap="round" stroke-linejoin="round" fill="none" stroke="#9e9e9e" d="M -1.19551 1.59401 C -1.09587 .99626 0 .09961 .29886 0 C 0 -.09961 -1.09587 -.99626 -1.19551 -1.59401 "/>
<path transform="matrix(1,0,0,-1,33.772,13.726013)" stroke-width=".3985" stroke-linecap="butt" stroke-miterlimit="10" stroke-linejoin="miter" fill="none" stroke="#9e9e9e" d=""/>
<path transform="matrix(1,0,0,-1,33.772,13.726013)" stroke-width=".3985" stroke-linecap="butt" stroke-miterlimit="10" stroke-linejoin="miter" fill="none" stroke="#9e9e9e" d="M 8.04732 -84.81943 L 60.55287 -105.82178 "/>
<path transform="matrix(.92844,.37137,.37137,-.92844,94.32486,119.54779)" stroke-width=".31879" stroke-linecap="round" stroke-linejoin="round" fill="none" stroke="#9e9e9e" d="M -1.19551 1.59401 C -1.09587 .99626 0 .09961 .29886 0 C 0 -.09961 -1.09587 -.99626 -1.19551 -1.59401 "/>
<path transform="matrix(1,0,0,-1,33.772,13.726013)" stroke-width=".3985" stroke-linecap="butt" stroke-miterlimit="10" stroke-linejoin="miter" fill="none" stroke="#9e9e9e" d=""/>
<path transform="matrix(1,0,0,-1,33.772,13.726013)" stroke-width=".3985" stroke-linecap="butt" stroke-miterlimit="10" stroke-linejoin="miter" fill="none" stroke="#9e9e9e" d="M 6.76785 -87.01491 L 62.19275 -131.35468 "/>
<path transform="matrix(.78082,.62466,.62466,-.78082,95.96475,145.08069)" stroke-width=".31879" stroke-linecap="round" stroke-linejoin="round" fill="none" stroke="#9e9e9e" d="M -1.19551 1.59401 C -1.09587 .99626 0 .09961 .29886 0 C 0 -.09961 -1.09587 -.99626 -1.19551 -1.59401 "/>
<path transform="matrix(1,0,0,-1,33.772,13.726013)" stroke-width=".3985" stroke-linecap="butt" stroke-miterlimit="10" stroke-linejoin="miter" fill="none" stroke="#9e9e9e" d=""/>
<path transform="matrix(1,0,0,-1,33.772,13.726013)" stroke-width=".3985" stroke-linecap="butt" stroke-miterlimit="10" stroke-linejoin="miter" fill="none" stroke="#9e9e9e" d="M 5.54857 -88.25891 L 63.75548 -158.10706 "/>
<path transform="matrix(.64015,.76819,.76819,-.64015,97.52748,171.83307)" stroke-width=".31879" stroke-linecap="round" stroke-linejoin="round" fill="none" stroke="#9e9e9e" d="M -1.19551 1.59401 C -1.09587 .99626 0 .09961 .29886 0 C 0 -.09961 -1.09587 -.99626 -1.19551 -1.59401 "/>
<path transform="matrix(1,0,0,-1,33.772,13.726013)" stroke-width=".3985" stroke-linecap="butt" stroke-miterlimit="10" stroke-linejoin="miter" fill="none" stroke="#9e9e9e" d=""/>
<path transform="matrix(1,0,0,-1,33.772,13.726013)" stroke-width=".3985" stroke-linecap="butt" stroke-miterlimit="10" stroke-linejoin="miter" fill="none" stroke="#9e9e9e" d="M 5.54857 -103.28903 L 63.75548 -33.44087 "/>
<path transform="matrix(.64015,-.76819,-.76819,-.64015,97.52748,47.16688)" stroke-width=".31879" stroke-linecap="round" stroke-linejoin="round" fill="none" stroke="#9e9e9e" d="M -1.19551 1.59401 C -1.09587 .99626 0 .09961 .29886 0 C 0 -.09961 -1.09587 -.99626 -1.19551 -1.59401 "/>
<path transform="matrix(1,0,0,-1,33.772,13.726013)" stroke-width=".3985" stroke-linecap="butt" stroke-miterlimit="10" stroke-linejoin="miter" fill="none" stroke="#9e9e9e" d=""/>
<path transform="matrix(1,0,0,-1,33.772,13.726013)" stroke-width=".3985" stroke-linecap="butt" stroke-miterlimit="10" stroke-linejoin="miter" fill="none" stroke="#9e9e9e" d="M 6.76785 -104.53304 L 62.19275 -60.19325 "/>
<path transform="matrix(.78082,-.62466,-.62466,-.78082,95.96475,73.919269)" stroke-width=".31879" stroke-linecap="round" stroke-linejoin="round" fill="none" stroke="#9e9e9e" d="M -1.19551 1.59401 C -1.09587 .99626 0 .09961 .29886 0 C 0 -.09961 -1.09587 -.99626 -1.19551 -1.59401 "/>
<path transform="matrix(1,0,0,-1,33.772,13.726013)" stroke-width=".3985" stroke-linecap="butt" stroke-miterlimit="10" stroke-linejoin="miter" fill="none" stroke="#9e9e9e" d=""/>
<path transform="matrix(1,0,0,-1,33.772,13.726013)" stroke-width=".3985" stroke-linecap="butt" stroke-miterlimit="10" stroke-linejoin="miter" fill="none" stroke="#9e9e9e" d="M 8.04732 -106.7285 L 60.55287 -85.72615 "/>
<path transform="matrix(.92844,-.37137,-.37137,-.92844,94.32486,99.45216)" stroke-width=".31879" stroke-linecap="round" stroke-linejoin="round" fill="none" stroke="#9e9e9e" d="M -1.19551 1.59401 C -1.09587 .99626 0 .09961 .29886 0 C 0 -.09961 -1.09587 -.99626 -1.19551 -1.59401 "/>
<path transform="matrix(1,0,0,-1,33.772,13.726013)" stroke-width=".3985" stroke-linecap="butt" stroke-miterlimit="10" stroke-linejoin="miter" fill="none" stroke="#9e9e9e" d=""/>
<path transform="matrix(1,0,0,-1,33.772,13.726013)" stroke-width=".3985" stroke-linecap="butt" stroke-miterlimit="10" stroke-linejoin="miter" fill="none" stroke="#9e9e9e" d="M 8.6676 -109.94737 L 59.75784 -109.94737 "/>
<path transform="matrix(1,0,0,-1,93.52984,123.673389)" stroke-width=".31879" stroke-linecap="round" stroke-linejoin="round" fill="none" stroke="#9e9e9e" d="M -1.19551 1.59401 C -1.09587 .99626 0 .09961 .29886 0 C 0 -.09961 -1.09587 -.99626 -1.19551 -1.59401 "/>
<path transform="matrix(1,0,0,-1,33.772,13.726013)" stroke-width=".3985" stroke-linecap="butt" stroke-miterlimit="10" stroke-linejoin="miter" fill="none" stroke="#9e9e9e" d=""/>
<path transform="matrix(1,0,0,-1,33.772,13.726013)" stroke-width=".3985" stroke-linecap="butt" stroke-miterlimit="10" stroke-linejoin="miter" fill="none" stroke="#9e9e9e" d="M 8.04732 -113.16624 L 60.55287 -134.1686 "/>
<path transform="matrix(.92844,.37137,.37137,-.92844,94.32486,147.8946)" stroke-width=".31879" stroke-linecap="round" stroke-linejoin="round" fill="none" stroke="#9e9e9e" d="M -1.19551 1.59401 C -1.09587 .99626 0 .09961 .29886 0 C 0 -.09961 -1.09587 -.99626 -1.19551 -1.59401 "/>
<path transform="matrix(1,0,0,-1,33.772,13.726013)" stroke-width=".3985" stroke-linecap="butt" stroke-miterlimit="10" stroke-linejoin="miter" fill="none" stroke="#9e9e9e" d=""/>
<path transform="matrix(1,0,0,-1,33.772,13.726013)" stroke-width=".3985" stroke-linecap="butt" stroke-miterlimit="10" stroke-linejoin="miter" fill="none" stroke="#9e9e9e" d="M 6.76785 -115.36171 L 62.19275 -159.70149 "/>
<path transform="matrix(.78082,.62466,.62466,-.78082,95.96475,173.4275)" stroke-width=".31879" stroke-linecap="round" stroke-linejoin="round" fill="none" stroke="#9e9e9e" d="M -1.19551 1.59401 C -1.09587 .99626 0 .09961 .29886 0 C 0 -.09961 -1.09587 -.99626 -1.19551 -1.59401 "/>
<path transform="matrix(1,0,0,-1,33.772,13.726013)" stroke-width=".3985" stroke-linecap="butt" stroke-miterlimit="10" stroke-linejoin="miter" fill="none" stroke="#9e9e9e" d=""/>
<path transform="matrix(1,0,0,-1,33.772,13.726013)" stroke-width=".3985" stroke-linecap="butt" stroke-miterlimit="10" stroke-linejoin="miter" fill="none" stroke="#9e9e9e" d="M 4.59366 -130.94414 L 64.97937 -34.32744 "/>
<path transform="matrix(.52998,-.84799,-.84799,-.52998,98.75134,48.053464)" stroke-width=".31879" stroke-linecap="round" stroke-linejoin="round" fill="none" stroke="#9e9e9e" d="M -1.19551 1.59401 C -1.09587 .99626 0 .09961 .29886 0 C 0 -.09961 -1.09587 -.99626 -1.19551 -1.59401 "/>
<path transform="matrix(1,0,0,-1,33.772,13.726013)" stroke-width=".3985" stroke-linecap="butt" stroke-miterlimit="10" stroke-linejoin="miter" fill="none" stroke="#9e9e9e" d=""/>
<path transform="matrix(1,0,0,-1,33.772,13.726013)" stroke-width=".3985" stroke-linecap="butt" stroke-miterlimit="10" stroke-linejoin="miter" fill="none" stroke="#9e9e9e" d="M 5.54857 -131.63584 L 63.75548 -61.78769 "/>
<path transform="matrix(.64015,-.76819,-.76819,-.64015,97.52748,75.5137)" stroke-width=".31879" stroke-linecap="round" stroke-linejoin="round" fill="none" stroke="#9e9e9e" d="M -1.19551 1.59401 C -1.09587 .99626 0 .09961 .29886 0 C 0 -.09961 -1.09587 -.99626 -1.19551 -1.59401 "/>
<path transform="matrix(1,0,0,-1,33.772,13.726013)" stroke-width=".3985" stroke-linecap="butt" stroke-miterlimit="10" stroke-linejoin="miter" fill="none" stroke="#9e9e9e" d=""/>
<path transform="matrix(1,0,0,-1,33.772,13.726013)" stroke-width=".3985" stroke-linecap="butt" stroke-miterlimit="10" stroke-linejoin="miter" fill="none" stroke="#9e9e9e" d="M 6.76785 -132.87985 L 62.19275 -88.54007 "/>
<path transform="matrix(.78082,-.62466,-.62466,-.78082,95.96475,102.26608)" stroke-width=".31879" stroke-linecap="round" stroke-linejoin="round" fill="none" stroke="#9e9e9e" d="M -1.19551 1.59401 C -1.09587 .99626 0 .09961 .29886 0 C 0 -.09961 -1.09587 -.99626 -1.19551 -1.59401 "/>
<path transform="matrix(1,0,0,-1,33.772,13.726013)" stroke-width=".3985" stroke-linecap="butt" stroke-miterlimit="10" stroke-linejoin="miter" fill="none" stroke="#9e9e9e" d=""/>
<path transform="matrix(1,0,0,-1,33.772,13.726013)" stroke-width=".3985" stroke-linecap="butt" stroke-miterlimit="10" stroke-linejoin="miter" fill="none" stroke="#9e9e9e" d="M 8.04732 -135.07532 L 60.55287 -114.07297 "/>
<path transform="matrix(.92844,-.37137,-.37137,-.92844,94.32486,127.79898)" stroke-width=".31879" stroke-linecap="round" stroke-linejoin="round" fill="none" stroke="#9e9e9e" d="M -1.19551 1.59401 C -1.09587 .99626 0 .09961 .29886 0 C 0 -.09961 -1.09587 -.99626 -1.19551 -1.59401 "/>
<path transform="matrix(1,0,0,-1,33.772,13.726013)" stroke-width=".3985" stroke-linecap="butt" stroke-miterlimit="10" stroke-linejoin="miter" fill="none" stroke="#9e9e9e" d=""/>
<path transform="matrix(1,0,0,-1,33.772,13.726013)" stroke-width=".3985" stroke-linecap="butt" stroke-miterlimit="10" stroke-linejoin="miter" fill="none" stroke="#9e9e9e" d="M 8.6676 -138.29419 L 59.75784 -138.29419 "/>
<path transform="matrix(1,0,0,-1,93.52984,152.0202)" stroke-width=".31879" stroke-linecap="round" stroke-linejoin="round" fill="none" stroke="#9e9e9e" d="M -1.19551 1.59401 C -1.09587 .99626 0 .09961 .29886 0 C 0 -.09961 -1.09587 -.99626 -1.19551 -1.59401 "/>
<path transform="matrix(1,0,0,-1,33.772,13.726013)" stroke-width=".3985" stroke-linecap="butt" stroke-miterlimit="10" stroke-linejoin="miter" fill="none" stroke="#9e9e9e" d=""/>
<path transform="matrix(1,0,0,-1,33.772,13.726013)" stroke-width=".3985" stroke-linecap="butt" stroke-miterlimit="10" stroke-linejoin="miter" fill="none" stroke="#9e9e9e" d="M 8.04732 -141.51305 L 60.55287 -162.51541 "/>
<path transform="matrix(.92844,.37137,.37137,-.92844,94.32486,176.24143)" stroke-width=".31879" stroke-linecap="round" stroke-linejoin="round" fill="none" stroke="#9e9e9e" d="M -1.19551 1.59401 C -1.09587 .99626 0 .09961 .29886 0 C 0 -.09961 -1.09587 -.99626 -1.19551 -1.59401 "/>
<path transform="matrix(1,0,0,-1,33.772,13.726013)" d="M 151.18947 -67.42715 C 151.18947 -62.20503 146.9562 -57.97177 141.73409 -57.97177 C 136.51197 -57.97177 132.2787 -62.20503 132.2787 -67.42715 C 132.2787 -72.64928 136.51197 -76.88254 141.73409 -76.88254 C 146.9562 -76.88254 151.18947 -72.64928 151.18947 -67.42715 Z M 141.73409 -67.42715 " fill="#9999ff"/>
<text xml:space="preserve" transform="matrix(1 0 -0 1 0 189.82)" font-size="8.9664" font-family="CMMI9" font-style="italic"><tspan y="-105.274" x="167.896">h</tspan></text>
<text xml:space="preserve" transform="matrix(1 0 -0 1 0 189.82)" font-size="5.9776" font-family="CMR6"><tspan y="-109.857" x="173.206 176.0872 179.73952">(2)</tspan><tspan y="-102.996" x="173.206">1</tspan></text>
<path transform="matrix(1,0,0,-1,33.772,13.726013)" d="M 151.18947 -95.77396 C 151.18947 -90.55183 146.9562 -86.31857 141.73409 -86.31857 C 136.51197 -86.31857 132.2787 -90.55183 132.2787 -95.77396 C 132.2787 -100.99608 136.51197 -105.22935 141.73409 -105.22935 C 146.9562 -105.22935 151.18947 -100.99608 151.18947 -95.77396 Z M 141.73409 -95.77396 " fill="#9999ff"/>
<text xml:space="preserve" transform="matrix(1 0 -0 1 0 189.82)" font-size="8.9664" font-family="CMMI9" font-style="italic"><tspan y="-76.927" x="167.896">h</tspan></text>
<text xml:space="preserve" transform="matrix(1 0 -0 1 0 189.82)" font-size="5.9776" font-family="CMR6"><tspan y="-81.51" x="173.206 176.0872 179.73952">(2)</tspan><tspan y="-74.649" x="173.206">2</tspan></text>
<path transform="matrix(1,0,0,-1,33.772,13.726013)" d="M 151.18947 -124.12077 C 151.18947 -118.89865 146.9562 -114.66539 141.73409 -114.66539 C 136.51197 -114.66539 132.2787 -118.89865 132.2787 -124.12077 C 132.2787 -129.3429 136.51197 -133.57616 141.73409 -133.57616 C 146.9562 -133.57616 151.18947 -129.3429 151.18947 -124.12077 Z M 141.73409 -124.12077 " fill="#9999ff"/>
<text xml:space="preserve" transform="matrix(1 0 -0 1 0 189.82)" font-size="8.9664" font-family="CMMI9" font-style="italic"><tspan y="-48.581" x="167.896">h</tspan></text>
<text xml:space="preserve" transform="matrix(1 0 -0 1 0 189.82)" font-size="5.9776" font-family="CMR6"><tspan y="-53.164" x="173.206 176.0872 179.73952">(2)</tspan><tspan y="-46.303" x="173.206">3</tspan></text>
<text xml:space="preserve" transform="matrix(1 0 -0 1 0 189.82)" font-size="9.9626" font-family="CMR10"><tspan y="-179.581" x="159.869 167.34096 170.11057 175.64977 181.18897 185.61237">Hidden</tspan><tspan y="-167.62599" x="160.962 163.73162 168.43396 173.41527 177.83867 185.07152">layer2</tspan></text>
<path transform="matrix(1,0,0,-1,33.772,13.726013)" stroke-width=".3985" stroke-linecap="butt" stroke-miterlimit="10" stroke-linejoin="miter" fill="none" stroke="#9e9e9e" d=""/>
<path transform="matrix(1,0,0,-1,33.772,13.726013)" stroke-width=".3985" stroke-linecap="butt" stroke-miterlimit="10" stroke-linejoin="miter" fill="none" stroke="#9e9e9e" d="M 79.14557 -29.8742 L 132.20833 -61.71172 "/>
<path transform="matrix(.85747,.51448,.51448,-.85747,165.98033,75.43771)" stroke-width=".31879" stroke-linecap="round" stroke-linejoin="round" fill="none" stroke="#9e9e9e" d="M -1.19551 1.59401 C -1.09587 .99626 0 .09961 .29886 0 C 0 -.09961 -1.09587 -.99626 -1.19551 -1.59401 "/>
<path transform="matrix(1,0,0,-1,33.772,13.726013)" stroke-width=".3985" stroke-linecap="butt" stroke-miterlimit="10" stroke-linejoin="miter" fill="none" stroke="#9e9e9e" d=""/>
<path transform="matrix(1,0,0,-1,33.772,13.726013)" stroke-width=".3985" stroke-linecap="butt" stroke-miterlimit="10" stroke-linejoin="miter" fill="none" stroke="#9e9e9e" d="M 77.6939 -31.73381 L 133.87871 -87.91858 "/>
<path transform="matrix(.7071,.7071,.7071,-.7071,167.65071,101.64459)" stroke-width=".31879" stroke-linecap="round" stroke-linejoin="round" fill="none" stroke="#9e9e9e" d="M -1.19551 1.59401 C -1.09587 .99626 0 .09961 .29886 0 C 0 -.09961 -1.09587 -.99626 -1.19551 -1.59401 "/>
<path transform="matrix(1,0,0,-1,33.772,13.726013)" stroke-width=".3985" stroke-linecap="butt" stroke-miterlimit="10" stroke-linejoin="miter" fill="none" stroke="#9e9e9e" d=""/>
<path transform="matrix(1,0,0,-1,33.772,13.726013)" stroke-width=".3985" stroke-linecap="butt" stroke-miterlimit="10" stroke-linejoin="miter" fill="none" stroke="#9e9e9e" d="M 76.47838 -32.76268 L 135.27753 -115.08134 "/>
<path transform="matrix(.58119,.81369,.81369,-.58119,169.04952,128.80735)" stroke-width=".31879" stroke-linecap="round" stroke-linejoin="round" fill="none" stroke="#9e9e9e" d="M -1.19551 1.59401 C -1.09587 .99626 0 .09961 .29886 0 C 0 -.09961 -1.09587 -.99626 -1.19551 -1.59401 "/>
<path transform="matrix(1,0,0,-1,33.772,13.726013)" stroke-width=".3985" stroke-linecap="butt" stroke-miterlimit="10" stroke-linejoin="miter" fill="none" stroke="#9e9e9e" d=""/>
<path transform="matrix(1,0,0,-1,33.772,13.726013)" stroke-width=".3985" stroke-linecap="butt" stroke-miterlimit="10" stroke-linejoin="miter" fill="none" stroke="#9e9e9e" d="M 80.33385 -55.14708 L 130.84104 -65.24858 "/>
<path transform="matrix(.98055,.1961,.1961,-.98055,164.61304,78.97459)" stroke-width=".31879" stroke-linecap="round" stroke-linejoin="round" fill="none" stroke="#9e9e9e" d="M -1.19551 1.59401 C -1.09587 .99626 0 .09961 .29886 0 C 0 -.09961 -1.09587 -.99626 -1.19551 -1.59401 "/>
<path transform="matrix(1,0,0,-1,33.772,13.726013)" stroke-width=".3985" stroke-linecap="butt" stroke-miterlimit="10" stroke-linejoin="miter" fill="none" stroke="#9e9e9e" d=""/>
<path transform="matrix(1,0,0,-1,33.772,13.726013)" stroke-width=".3985" stroke-linecap="butt" stroke-miterlimit="10" stroke-linejoin="miter" fill="none" stroke="#9e9e9e" d="M 79.14557 -58.22101 L 132.20833 -90.05852 "/>
<path transform="matrix(.85747,.51448,.51448,-.85747,165.98033,103.784519)" stroke-width=".31879" stroke-linecap="round" stroke-linejoin="round" fill="none" stroke="#9e9e9e" d="M -1.19551 1.59401 C -1.09587 .99626 0 .09961 .29886 0 C 0 -.09961 -1.09587 -.99626 -1.19551 -1.59401 "/>
<path transform="matrix(1,0,0,-1,33.772,13.726013)" stroke-width=".3985" stroke-linecap="butt" stroke-miterlimit="10" stroke-linejoin="miter" fill="none" stroke="#9e9e9e" d=""/>
<path transform="matrix(1,0,0,-1,33.772,13.726013)" stroke-width=".3985" stroke-linecap="butt" stroke-miterlimit="10" stroke-linejoin="miter" fill="none" stroke="#9e9e9e" d="M 77.6939 -60.08061 L 133.87871 -116.2654 "/>
<path transform="matrix(.7071,.7071,.7071,-.7071,167.65071,129.99143)" stroke-width=".31879" stroke-linecap="round" stroke-linejoin="round" fill="none" stroke="#9e9e9e" d="M -1.19551 1.59401 C -1.09587 .99626 0 .09961 .29886 0 C 0 -.09961 -1.09587 -.99626 -1.19551 -1.59401 "/>
<path transform="matrix(1,0,0,-1,33.772,13.726013)" stroke-width=".3985" stroke-linecap="butt" stroke-miterlimit="10" stroke-linejoin="miter" fill="none" stroke="#9e9e9e" d=""/>
<path transform="matrix(1,0,0,-1,33.772,13.726013)" stroke-width=".3985" stroke-linecap="butt" stroke-miterlimit="10" stroke-linejoin="miter" fill="none" stroke="#9e9e9e" d="M 80.33385 -79.70723 L 130.84104 -69.60571 "/>
<path transform="matrix(.98055,-.1961,-.1961,-.98055,164.61304,83.33174)" stroke-width=".31879" stroke-linecap="round" stroke-linejoin="round" fill="none" stroke="#9e9e9e" d="M -1.19551 1.59401 C -1.09587 .99626 0 .09961 .29886 0 C 0 -.09961 -1.09587 -.99626 -1.19551 -1.59401 "/>
<path transform="matrix(1,0,0,-1,33.772,13.726013)" stroke-width=".3985" stroke-linecap="butt" stroke-miterlimit="10" stroke-linejoin="miter" fill="none" stroke="#9e9e9e" d=""/>
<path transform="matrix(1,0,0,-1,33.772,13.726013)" stroke-width=".3985" stroke-linecap="butt" stroke-miterlimit="10" stroke-linejoin="miter" fill="none" stroke="#9e9e9e" d="M 80.33385 -83.4939 L 130.84104 -93.5954 "/>
<path transform="matrix(.98055,.1961,.1961,-.98055,164.61304,107.321399)" stroke-width=".31879" stroke-linecap="round" stroke-linejoin="round" fill="none" stroke="#9e9e9e" d="M -1.19551 1.59401 C -1.09587 .99626 0 .09961 .29886 0 C 0 -.09961 -1.09587 -.99626 -1.19551 -1.59401 "/>
<path transform="matrix(1,0,0,-1,33.772,13.726013)" stroke-width=".3985" stroke-linecap="butt" stroke-miterlimit="10" stroke-linejoin="miter" fill="none" stroke="#9e9e9e" d=""/>
<path transform="matrix(1,0,0,-1,33.772,13.726013)" stroke-width=".3985" stroke-linecap="butt" stroke-miterlimit="10" stroke-linejoin="miter" fill="none" stroke="#9e9e9e" d="M 79.14557 -86.56783 L 132.20833 -118.40533 "/>
<path transform="matrix(.85747,.51448,.51448,-.85747,165.98033,132.13134)" stroke-width=".31879" stroke-linecap="round" stroke-linejoin="round" fill="none" stroke="#9e9e9e" d="M -1.19551 1.59401 C -1.09587 .99626 0 .09961 .29886 0 C 0 -.09961 -1.09587 -.99626 -1.19551 -1.59401 "/>
<path transform="matrix(1,0,0,-1,33.772,13.726013)" stroke-width=".3985" stroke-linecap="butt" stroke-miterlimit="10" stroke-linejoin="miter" fill="none" stroke="#9e9e9e" d=""/>
<path transform="matrix(1,0,0,-1,33.772,13.726013)" stroke-width=".3985" stroke-linecap="butt" stroke-miterlimit="10" stroke-linejoin="miter" fill="none" stroke="#9e9e9e" d="M 79.14557 -104.98012 L 132.20833 -73.1426 "/>
<path transform="matrix(.85747,-.51448,-.51448,-.85747,165.98033,86.86862)" stroke-width=".31879" stroke-linecap="round" stroke-linejoin="round" fill="none" stroke="#9e9e9e" d="M -1.19551 1.59401 C -1.09587 .99626 0 .09961 .29886 0 C 0 -.09961 -1.09587 -.99626 -1.19551 -1.59401 "/>
<path transform="matrix(1,0,0,-1,33.772,13.726013)" stroke-width=".3985" stroke-linecap="butt" stroke-miterlimit="10" stroke-linejoin="miter" fill="none" stroke="#9e9e9e" d=""/>
<path transform="matrix(1,0,0,-1,33.772,13.726013)" stroke-width=".3985" stroke-linecap="butt" stroke-miterlimit="10" stroke-linejoin="miter" fill="none" stroke="#9e9e9e" d="M 80.33385 -108.05405 L 130.84104 -97.95253 "/>
<path transform="matrix(.98055,-.1961,-.1961,-.98055,164.61304,111.678569)" stroke-width=".31879" stroke-linecap="round" stroke-linejoin="round" fill="none" stroke="#9e9e9e" d="M -1.19551 1.59401 C -1.09587 .99626 0 .09961 .29886 0 C 0 -.09961 -1.09587 -.99626 -1.19551 -1.59401 "/>
<path transform="matrix(1,0,0,-1,33.772,13.726013)" stroke-width=".3985" stroke-linecap="butt" stroke-miterlimit="10" stroke-linejoin="miter" fill="none" stroke="#9e9e9e" d=""/>
<path transform="matrix(1,0,0,-1,33.772,13.726013)" stroke-width=".3985" stroke-linecap="butt" stroke-miterlimit="10" stroke-linejoin="miter" fill="none" stroke="#9e9e9e" d="M 80.33385 -111.8407 L 130.84104 -121.9422 "/>
<path transform="matrix(.98055,.1961,.1961,-.98055,164.61304,135.66819)" stroke-width=".31879" stroke-linecap="round" stroke-linejoin="round" fill="none" stroke="#9e9e9e" d="M -1.19551 1.59401 C -1.09587 .99626 0 .09961 .29886 0 C 0 -.09961 -1.09587 -.99626 -1.19551 -1.59401 "/>
<path transform="matrix(1,0,0,-1,33.772,13.726013)" stroke-width=".3985" stroke-linecap="butt" stroke-miterlimit="10" stroke-linejoin="miter" fill="none" stroke="#9e9e9e" d=""/>
<path transform="matrix(1,0,0,-1,33.772,13.726013)" stroke-width=".3985" stroke-linecap="butt" stroke-miterlimit="10" stroke-linejoin="miter" fill="none" stroke="#9e9e9e" d="M 77.6939 -131.46733 L 133.87914 -75.28288 "/>
<path transform="matrix(.70682,-.70735,-.70735,-.70682,167.65114,89.00891)" stroke-width=".31879" stroke-linecap="round" stroke-linejoin="round" fill="none" stroke="#9e9e9e" d="M -1.19551 1.59401 C -1.09587 .99626 0 .09961 .29886 0 C 0 -.09961 -1.09587 -.99626 -1.19551 -1.59401 "/>
<path transform="matrix(1,0,0,-1,33.772,13.726013)" stroke-width=".3985" stroke-linecap="butt" stroke-miterlimit="10" stroke-linejoin="miter" fill="none" stroke="#9e9e9e" d=""/>
<path transform="matrix(1,0,0,-1,33.772,13.726013)" stroke-width=".3985" stroke-linecap="butt" stroke-miterlimit="10" stroke-linejoin="miter" fill="none" stroke="#9e9e9e" d="M 79.14557 -133.32692 L 132.20833 -101.48941 "/>
<path transform="matrix(.85747,-.51448,-.51448,-.85747,165.98033,115.21545)" stroke-width=".31879" stroke-linecap="round" stroke-linejoin="round" fill="none" stroke="#9e9e9e" d="M -1.19551 1.59401 C -1.09587 .99626 0 .09961 .29886 0 C 0 -.09961 -1.09587 -.99626 -1.19551 -1.59401 "/>
<path transform="matrix(1,0,0,-1,33.772,13.726013)" stroke-width=".3985" stroke-linecap="butt" stroke-miterlimit="10" stroke-linejoin="miter" fill="none" stroke="#9e9e9e" d=""/>
<path transform="matrix(1,0,0,-1,33.772,13.726013)" stroke-width=".3985" stroke-linecap="butt" stroke-miterlimit="10" stroke-linejoin="miter" fill="none" stroke="#9e9e9e" d="M 80.33385 -136.40085 L 130.84104 -126.29933 "/>
<path transform="matrix(.98055,-.1961,-.1961,-.98055,164.61304,140.02536)" stroke-width=".31879" stroke-linecap="round" stroke-linejoin="round" fill="none" stroke="#9e9e9e" d="M -1.19551 1.59401 C -1.09587 .99626 0 .09961 .29886 0 C 0 -.09961 -1.09587 -.99626 -1.19551 -1.59401 "/>
<path transform="matrix(1,0,0,-1,33.772,13.726013)" stroke-width=".3985" stroke-linecap="butt" stroke-miterlimit="10" stroke-linejoin="miter" fill="none" stroke="#9e9e9e" d=""/>
<path transform="matrix(1,0,0,-1,33.772,13.726013)" stroke-width=".3985" stroke-linecap="butt" stroke-miterlimit="10" stroke-linejoin="miter" fill="none" stroke="#9e9e9e" d="M 76.47838 -158.78527 L 135.27753 -76.46658 "/>
<path transform="matrix(.58119,-.81369,-.81369,-.58119,169.04952,90.19261)" stroke-width=".31879" stroke-linecap="round" stroke-linejoin="round" fill="none" stroke="#9e9e9e" d="M -1.19551 1.59401 C -1.09587 .99626 0 .09961 .29886 0 C 0 -.09961 -1.09587 -.99626 -1.19551 -1.59401 "/>
<path transform="matrix(1,0,0,-1,33.772,13.726013)" stroke-width=".3985" stroke-linecap="butt" stroke-miterlimit="10" stroke-linejoin="miter" fill="none" stroke="#9e9e9e" d=""/>
<path transform="matrix(1,0,0,-1,33.772,13.726013)" stroke-width=".3985" stroke-linecap="butt" stroke-miterlimit="10" stroke-linejoin="miter" fill="none" stroke="#9e9e9e" d="M 77.6939 -159.81414 L 133.87914 -103.62968 "/>
<path transform="matrix(.70682,-.70735,-.70735,-.70682,167.65114,117.35571)" stroke-width=".31879" stroke-linecap="round" stroke-linejoin="round" fill="none" stroke="#9e9e9e" d="M -1.19551 1.59401 C -1.09587 .99626 0 .09961 .29886 0 C 0 -.09961 -1.09587 -.99626 -1.19551 -1.59401 "/>
<path transform="matrix(1,0,0,-1,33.772,13.726013)" stroke-width=".3985" stroke-linecap="butt" stroke-miterlimit="10" stroke-linejoin="miter" fill="none" stroke="#9e9e9e" d=""/>
<path transform="matrix(1,0,0,-1,33.772,13.726013)" stroke-width=".3985" stroke-linecap="butt" stroke-miterlimit="10" stroke-linejoin="miter" fill="none" stroke="#9e9e9e" d="M 79.14557 -161.67374 L 132.20833 -129.83621 "/>
<path transform="matrix(.85747,-.51448,-.51448,-.85747,165.98033,143.56224)" stroke-width=".31879" stroke-linecap="round" stroke-linejoin="round" fill="none" stroke="#9e9e9e" d="M -1.19551 1.59401 C -1.09587 .99626 0 .09961 .29886 0 C 0 -.09961 -1.09587 -.99626 -1.19551 -1.59401 "/>
<path transform="matrix(1,0,0,-1,33.772,13.726013)" d="M 221.06949 -81.60057 C 221.06949 -76.92357 217.27814 -73.13222 212.60114 -73.13222 C 207.92414 -73.13222 204.13278 -76.92357 204.13278 -81.60057 C 204.13278 -86.27756 207.92414 -90.06892 212.60114 -90.06892 C 217.27814 -90.06892 221.06949 -86.27756 221.06949 -81.60057 Z M 212.60114 -81.60057 " fill="#000099"/>
<text fill="#ffffff" xml:space="preserve" transform="matrix(1 0 -0 1 0 189.82)" font-size="9.9626" font-family="CMR10"><tspan y="-92.004" x="242.378">&#x02c6;</tspan></text>
<text fill="#ffffff" xml:space="preserve" transform="matrix(1 0 -0 1 0 189.82)" font-size="9.9626" font-family="CMMI10" font-style="italic"><tspan y="-92.004" x="241.694">y</tspan></text>
<text fill="#ffffff" xml:space="preserve" transform="matrix(1 0 -0 1 0 189.82)" font-size="6.9738" font-family="CMR7"><tspan y="-90.509998" x="246.578">1</tspan></text>
<path transform="matrix(1,0,0,-1,33.772,13.726013)" d="M 221.06949 -109.94737 C 221.06949 -105.27039 217.27814 -101.47902 212.60114 -101.47902 C 207.92414 -101.47902 204.13278 -105.27039 204.13278 -109.94737 C 204.13278 -114.62437 207.92414 -118.41573 212.60114 -118.41573 C 217.27814 -118.41573 221.06949 -114.62437 221.06949 -109.94737 Z M 212.60114 -109.94737 " fill="#000099"/>
<text fill="#ffffff" xml:space="preserve" transform="matrix(1 0 -0 1 0 189.82)" font-size="9.9626" font-family="CMR10"><tspan y="-63.657" x="242.378">&#x02c6;</tspan></text>
<text fill="#ffffff" xml:space="preserve" transform="matrix(1 0 -0 1 0 189.82)" font-size="9.9626" font-family="CMMI10" font-style="italic"><tspan y="-63.657" x="241.694">y</tspan></text>
<text fill="#ffffff" xml:space="preserve" transform="matrix(1 0 -0 1 0 189.82)" font-size="6.9738" font-family="CMR7"><tspan y="-62.163003" x="246.578">2</tspan></text>
<text xml:space="preserve" transform="matrix(1 0 -0 1 0 189.82)" font-size="9.9626" font-family="CMR10"><tspan y="-179.636" x="230.32 238.0709 243.6101 247.48557 253.02477 258.56398">Output</tspan><tspan y="-167.681" x="235.979 238.74861 243.45096 248.43227 252.85567">layer</tspan></text>
<path transform="matrix(1,0,0,-1,33.772,13.726013)" stroke-width=".3985" stroke-linecap="butt" stroke-miterlimit="10" stroke-linejoin="miter" fill="none" stroke="#9e9e9e" d=""/>
<path transform="matrix(1,0,0,-1,33.772,13.726013)" stroke-width=".3985" stroke-linecap="butt" stroke-miterlimit="10" stroke-linejoin="miter" fill="none" stroke="#9e9e9e" d="M 151.2009 -69.32048 L 202.67592 -79.61557 "/>
<path transform="matrix(.98055,.1961,.1961,-.98055,236.44792,93.34156)" stroke-width=".31879" stroke-linecap="round" stroke-linejoin="round" fill="none" stroke="#9e9e9e" d="M -1.19551 1.59401 C -1.09587 .99626 0 .09961 .29886 0 C 0 -.09961 -1.09587 -.99626 -1.19551 -1.59401 "/>
<path transform="matrix(1,0,0,-1,33.772,13.726013)" stroke-width=".3985" stroke-linecap="butt" stroke-miterlimit="10" stroke-linejoin="miter" fill="none" stroke="#9e9e9e" d=""/>
<path transform="matrix(1,0,0,-1,33.772,13.726013)" stroke-width=".3985" stroke-linecap="butt" stroke-miterlimit="10" stroke-linejoin="miter" fill="none" stroke="#9e9e9e" d="M 150.01262 -72.39441 L 203.92173 -104.73973 "/>
<path transform="matrix(.85747,.51448,.51448,-.85747,237.69373,118.46574)" stroke-width=".31879" stroke-linecap="round" stroke-linejoin="round" fill="none" stroke="#9e9e9e" d="M -1.19551 1.59401 C -1.09587 .99626 0 .09961 .29886 0 C 0 -.09961 -1.09587 -.99626 -1.19551 -1.59401 "/>
<path transform="matrix(1,0,0,-1,33.772,13.726013)" stroke-width=".3985" stroke-linecap="butt" stroke-miterlimit="10" stroke-linejoin="miter" fill="none" stroke="#9e9e9e" d=""/>
<path transform="matrix(1,0,0,-1,33.772,13.726013)" stroke-width=".3985" stroke-linecap="butt" stroke-miterlimit="10" stroke-linejoin="miter" fill="none" stroke="#9e9e9e" d="M 151.2009 -93.88063 L 202.67592 -83.58556 "/>
<path transform="matrix(.98055,-.1961,-.1961,-.98055,236.44792,97.311588)" stroke-width=".31879" stroke-linecap="round" stroke-linejoin="round" fill="none" stroke="#9e9e9e" d="M -1.19551 1.59401 C -1.09587 .99626 0 .09961 .29886 0 C 0 -.09961 -1.09587 -.99626 -1.19551 -1.59401 "/>
<path transform="matrix(1,0,0,-1,33.772,13.726013)" stroke-width=".3985" stroke-linecap="butt" stroke-miterlimit="10" stroke-linejoin="miter" fill="none" stroke="#9e9e9e" d=""/>
<path transform="matrix(1,0,0,-1,33.772,13.726013)" stroke-width=".3985" stroke-linecap="butt" stroke-miterlimit="10" stroke-linejoin="miter" fill="none" stroke="#9e9e9e" d="M 151.2009 -97.6673 L 202.67592 -107.96237 "/>
<path transform="matrix(.98055,.1961,.1961,-.98055,236.44792,121.68837)" stroke-width=".31879" stroke-linecap="round" stroke-linejoin="round" fill="none" stroke="#9e9e9e" d="M -1.19551 1.59401 C -1.09587 .99626 0 .09961 .29886 0 C 0 -.09961 -1.09587 -.99626 -1.19551 -1.59401 "/>
<path transform="matrix(1,0,0,-1,33.772,13.726013)" stroke-width=".3985" stroke-linecap="butt" stroke-miterlimit="10" stroke-linejoin="miter" fill="none" stroke="#9e9e9e" d=""/>
<path transform="matrix(1,0,0,-1,33.772,13.726013)" stroke-width=".3985" stroke-linecap="butt" stroke-miterlimit="10" stroke-linejoin="miter" fill="none" stroke="#9e9e9e" d="M 150.01262 -119.1535 L 203.92173 -86.8082 "/>
<path transform="matrix(.85747,-.51448,-.51448,-.85747,237.69373,100.534229)" stroke-width=".31879" stroke-linecap="round" stroke-linejoin="round" fill="none" stroke="#9e9e9e" d="M -1.19551 1.59401 C -1.09587 .99626 0 .09961 .29886 0 C 0 -.09961 -1.09587 -.99626 -1.19551 -1.59401 "/>
<path transform="matrix(1,0,0,-1,33.772,13.726013)" stroke-width=".3985" stroke-linecap="butt" stroke-miterlimit="10" stroke-linejoin="miter" fill="none" stroke="#9e9e9e" d=""/>
<path transform="matrix(1,0,0,-1,33.772,13.726013)" stroke-width=".3985" stroke-linecap="butt" stroke-miterlimit="10" stroke-linejoin="miter" fill="none" stroke="#9e9e9e" d="M 151.2009 -122.22745 L 202.67592 -111.93237 "/>
<path transform="matrix(.98055,-.1961,-.1961,-.98055,236.44792,125.6584)" stroke-width=".31879" stroke-linecap="round" stroke-linejoin="round" fill="none" stroke="#9e9e9e" d="M -1.19551 1.59401 C -1.09587 .99626 0 .09961 .29886 0 C 0 -.09961 -1.09587 -.99626 -1.19551 -1.59401 "/>
</g>
</svg>
